<svg id="Layer_1" data-name="Layer 1" xmlns="http://www.w3.org/2000/svg" viewBox="0 0 532.14 372.91"><defs><style>.cls-1{fill:#59a62c;}</style></defs><title>Layer 1</title><path class="cls-1" d="M307,582.33c-4.37,0-11.53.13-15.9.13a78.69,78.69,0,0,1-1.35-15.23c.61-18.93.51-37.46,1.05-56.45q2.43-50.94,4.66-101.87c.05-1.11.62-4.83-1.44-4.16-32.53,12.16-66.26,11.54-99.68,10-28.72-1.31-54.72-12.68-77.45-30.23C84.47,359.51,66.26,325,53.33,287A330.66,330.66,0,0,1,40.4,236.48C37,216.56,53,218.72,63.42,215.8c13.31-2.46,47.72-5.75,71.27-6.21,25.3-.5,49.68,3,72.61,13.82,34.76,16.42,57.92,44,74.89,77.9C293,322.8,300,345.38,306.35,370h-.7c6.32-24.57,13.4-47.15,24.16-68.64,17-33.9,40.13-61.48,74.89-77.9,22.93-10.82,47.31-14.32,72.61-13.82,23.55.46,58,3.75,71.27,6.21,10.39,2.92,26.45.76,23,20.68A330.66,330.66,0,0,1,558.67,287c-12.93,38-31.14,72.47-63.56,97.49-22.73,17.55-48.73,28.92-77.45,30.23-33.42,1.53-67.15,2.15-99.68-10-2.06-.67-1.49,3.05-1.44,4.16q2.25,50.93,4.66,101.87c.9,18.91.1,38.06.71,57a65.82,65.82,0,0,1-1,14.69c-4.37,0-11.53-.13-15.9-.13" transform="translate(-39.93 -209.54)"/></svg>